<?xml version="1.0" standalone="no"?>
<!DOCTYPE svg PUBLIC "-//W3C//DTD SVG 20010904//EN"
 "http://www.w3.org/TR/2001/REC-SVG-20010904/DTD/svg10.dtd">
<svg version="1.0" xmlns="http://www.w3.org/2000/svg"
 width="699.000000pt" height="699.000000pt" viewBox="0 0 699.000000 699.000000"
 preserveAspectRatio="xMidYMid meet">
<metadata>
Created by potrace 1.14, written by Peter Selinger 2001-2017
</metadata>
<g transform="translate(0.000000,699.000000) scale(0.100000,-0.100000)"
fill="#000000" stroke="none">
<path d="M3306 6852 c-2 -1 -43 -5 -93 -7 -95 -6 -127 -10 -143 -20 -6 -3 -10
-1 -10 5 0 6 -5 8 -12 4 -6 -4 -21 -8 -32 -10 -12 -1 -39 -5 -61 -9 -22 -3
-53 -8 -70 -11 -16 -2 -37 -7 -45 -10 -8 -3 -26 -7 -40 -10 -14 -2 -36 -6 -50
-9 -24 -6 -71 -14 -97 -17 -7 -1 -13 -4 -13 -8 0 -3 -8 -6 -17 -6 -26 -2 -71
-12 -83 -19 -6 -4 -23 -9 -37 -11 -15 -3 -30 -8 -33 -12 -3 -4 -14 -8 -26 -9
-11 -1 -34 -8 -50 -14 -16 -7 -40 -14 -54 -16 -13 -2 -28 -10 -32 -16 -4 -7
-8 -9 -8 -5 0 4 -33 -7 -72 -24 -40 -16 -88 -34 -105 -39 -18 -6 -33 -14 -33
-20 0 -6 -4 -7 -10 -4 -5 3 -10 1 -10 -6 0 -7 -3 -9 -7 -6 -3 4 -12 2 -20 -4
-7 -6 -13 -8 -13 -5 0 4 -13 -2 -30 -14 -16 -12 -30 -18 -30 -14 0 4 -9 -1
-20 -11 -11 -10 -20 -14 -20 -9 0 5 -4 4 -8 -1 -7 -10 -60 -38 -75 -39 -4 -1
-11 -7 -16 -14 -5 -8 -12 -13 -17 -13 -17 1 -44 -10 -44 -20 0 -5 -7 -9 -15
-9 -8 0 -24 -9 -35 -20 -11 -11 -20 -18 -20 -15 0 8 -38 -16 -130 -80 -23 -16
-53 -37 -66 -46 -13 -9 -38 -28 -54 -42 -16 -15 -33 -27 -37 -27 -5 0 -22 -13
-39 -28 -17 -15 -50 -43 -74 -62 -24 -19 -67 -58 -97 -86 -29 -28 -53 -50 -53
-49 0 4 -123 -119 -150 -151 -43 -50 -153 -178 -164 -192 -6 -7 -21 -24 -34
-37 -13 -14 -20 -25 -16 -25 4 0 -4 -12 -18 -27 -30 -33 -150 -203 -142 -203
2 0 0 -6 -6 -12 -24 -28 -100 -154 -100 -165 0 -7 -4 -13 -10 -13 -5 0 -10 -9
-10 -21 0 -11 -4 -17 -10 -14 -9 5 -15 -15 -11 -37 0 -5 -3 -8 -9 -8 -5 0 -10
-7 -10 -15 0 -8 -4 -15 -10 -15 -5 0 -10 -4 -10 -10 0 -5 -16 -45 -36 -87 -20
-43 -37 -82 -38 -88 -1 -5 -10 -25 -19 -43 -10 -18 -15 -37 -12 -42 3 -6 2
-10 -3 -10 -5 0 -17 -21 -26 -47 -10 -27 -21 -57 -26 -68 -8 -19 -20 -56 -27
-82 -2 -7 -5 -19 -6 -25 -2 -7 -7 -26 -11 -43 -4 -16 -11 -39 -16 -50 -5 -11
-12 -36 -16 -55 -10 -45 -11 -49 -14 -55 -1 -3 -4 -9 -5 -15 -1 -5 -3 -11 -4
-12 -1 -2 -4 -19 -6 -38 -3 -19 -7 -46 -11 -60 -3 -14 -7 -38 -9 -55 -2 -16
-4 -30 -5 -30 -4 0 -30 -165 -35 -230 -2 -22 -7 -65 -11 -95 -17 -146 -8 -458
20 -652 3 -20 8 -56 10 -80 3 -24 10 -65 16 -93 28 -136 33 -162 34 -183 1
-13 6 -26 11 -30 6 -4 12 -20 14 -37 1 -16 6 -32 10 -35 3 -3 7 -18 9 -35 2
-16 8 -35 14 -42 6 -7 8 -13 4 -13 -3 0 1 -17 10 -38 8 -20 17 -44 19 -52 5
-27 36 -104 56 -142 11 -21 20 -40 19 -43 0 -3 7 -19 15 -35 9 -17 12 -30 8
-30 -5 0 -3 -4 2 -8 6 -4 15 -18 21 -32 36 -80 60 -125 67 -128 4 -2 7 -11 7
-20 0 -10 9 -28 20 -42 11 -14 20 -33 20 -42 0 -10 5 -18 10 -18 6 0 10 -5 10
-10 0 -6 12 -29 27 -53 15 -23 34 -53 41 -67 40 -78 59 -109 64 -105 3 3 13
-10 22 -29 9 -19 22 -41 29 -48 7 -7 28 -34 45 -60 18 -27 37 -48 42 -48 6 0
10 -6 10 -14 0 -8 10 -22 22 -30 12 -9 19 -16 15 -16 -4 0 1 -10 12 -22 11
-11 18 -26 14 -31 -3 -6 -2 -7 4 -4 8 5 53 -34 53 -46 0 -9 126 -131 133 -129
5 1 6 -2 2 -8 -3 -5 -1 -10 5 -10 6 0 8 -4 5 -10 -3 -5 -2 -10 4 -10 12 0 71
-58 71 -71 0 -5 3 -9 8 -9 4 0 45 -36 90 -80 46 -44 85 -80 87 -80 2 0 15 -10
27 -22 13 -13 39 -34 57 -48 19 -14 40 -31 48 -38 7 -7 13 -10 13 -6 0 4 8 -3
19 -14 10 -12 22 -22 26 -22 4 0 20 -9 36 -21 16 -11 29 -18 29 -15 0 3 9 -2
19 -11 36 -33 51 -44 51 -38 0 4 7 0 15 -7 31 -28 45 -39 45 -34 0 3 45 -22
101 -54 55 -33 102 -60 104 -60 2 0 27 -13 54 -29 28 -17 58 -31 68 -33 10 -2
21 -7 25 -12 3 -6 19 -11 35 -14 15 -2 30 -7 31 -13 2 -5 10 -9 18 -9 8 0 22
-4 32 -10 19 -11 73 -33 85 -34 4 -1 11 -5 15 -11 4 -5 21 -11 37 -13 17 -2
40 -10 52 -18 12 -8 27 -14 32 -14 5 0 22 -5 38 -12 15 -6 39 -13 52 -15 13
-2 37 -11 53 -19 15 -8 28 -12 28 -8 0 4 6 1 13 -5 8 -6 17 -8 20 -4 4 3 13 0
22 -7 9 -7 18 -10 22 -7 3 4 12 2 20 -5 7 -6 16 -8 19 -5 3 3 17 2 30 -3 14
-6 35 -12 47 -14 12 -2 44 -9 70 -15 27 -6 53 -9 58 -6 5 4 9 2 9 -4 0 -5 8
-9 18 -9 9 0 31 -3 47 -7 17 -3 44 -8 60 -10 17 -2 32 -4 35 -5 3 -1 17 -2 33
-2 15 -1 27 -3 27 -7 0 -3 19 -7 43 -7 121 -4 177 -10 177 -18 0 -5 6 -3 13 3
8 6 17 8 21 4 9 -10 36 -13 36 -4 0 4 9 7 20 7 11 0 20 -3 20 -7 0 -8 45 -4
59 6 6 3 11 2 11 -2 0 -9 102 -8 126 1 8 3 14 1 14 -5 0 -6 9 -7 23 -3 12 4
42 8 67 10 25 1 45 3 45 4 0 1 20 3 45 5 134 12 195 20 195 25 0 1 16 4 35 7
19 2 62 11 95 19 33 8 76 17 95 20 19 3 42 8 50 11 8 4 22 8 30 9 25 5 55 12
55 14 0 1 13 4 30 6 16 3 32 10 36 15 3 6 10 9 15 8 5 -1 12 0 17 1 4 1 12 4
17 5 6 1 11 3 13 5 4 3 41 11 57 12 8 0 21 6 28 11 8 6 24 13 35 14 12 2 26 8
31 13 6 6 18 10 28 10 10 0 18 4 18 8 0 4 8 8 18 9 29 2 72 22 72 33 0 6 5 8
10 5 6 -3 10 -1 10 5 0 6 4 9 10 5 9 -6 142 54 148 68 2 4 8 5 13 1 5 -3 9 0
9 6 0 6 4 9 9 5 6 -3 20 5 32 17 12 13 19 17 14 10 -6 -11 -3 -11 16 0 13 7
27 17 30 21 3 5 8 7 10 6 9 -7 88 48 82 56 -5 4 -3 5 4 2 6 -4 19 0 27 9 9 8
16 13 16 10 0 -4 18 6 40 20 22 15 40 31 40 36 0 5 4 7 8 4 5 -3 18 3 29 13
11 11 34 26 51 35 18 9 32 21 32 26 0 6 6 10 14 10 8 0 16 7 20 15 3 8 10 14
15 13 5 -2 20 9 35 25 14 15 29 27 33 27 5 0 20 11 35 25 14 14 31 25 37 25 6
0 11 7 11 15 0 8 7 15 15 15 8 0 15 4 15 8 0 5 11 15 25 22 13 7 22 17 19 22
-3 4 0 8 6 8 5 0 74 65 153 144 137 138 210 216 203 216 -2 0 18 23 45 52 27
29 46 54 44 56 -2 2 6 14 18 26 28 27 67 82 67 95 0 5 4 11 8 13 13 5 95 130
95 144 0 7 3 11 7 9 3 -2 15 13 25 33 11 20 43 78 70 127 28 50 52 93 53 98 1
4 14 31 29 60 15 28 26 55 25 59 -1 5 3 8 8 8 5 0 9 3 8 7 -3 13 25 83 34 83
4 0 7 3 6 8 0 4 1 14 4 22 4 8 9 24 14 35 4 11 8 27 10 35 2 8 7 23 12 35 25
53 43 116 36 127 -4 8 -3 9 2 5 7 -7 21 29 39 104 2 9 13 53 25 96 12 44 20
84 19 89 -1 5 3 22 10 39 7 16 10 40 8 52 -2 12 -1 24 3 25 4 2 10 27 14 57 4
29 9 58 12 62 3 5 0 9 -7 9 -8 0 -8 4 -1 13 16 20 43 314 43 467 0 95 -10 317
-16 350 -3 14 -8 52 -11 85 -7 61 -11 90 -14 90 -1 0 -3 16 -6 35 -2 19 -8 55
-14 80 -6 25 -12 54 -15 65 -2 11 -13 54 -25 95 -11 41 -22 83 -25 93 -8 33
-68 212 -75 222 -3 6 -12 30 -19 55 -7 25 -18 51 -24 59 -6 7 -12 19 -13 26
-8 55 -219 456 -269 511 -9 11 -76 114 -101 156 -6 11 -20 29 -30 41 -11 12
-27 35 -37 50 -32 49 -60 77 -71 70 -6 -3 -8 -3 -4 2 10 11 -11 47 -23 40 -5
-4 -8 -2 -7 4 5 18 -255 298 -273 293 -5 -1 -8 2 -7 7 4 12 -98 102 -106 93
-4 -4 -6 -2 -4 4 3 10 -112 114 -126 114 -3 0 -16 10 -29 23 -37 35 -66 57
-76 57 -5 0 -11 4 -13 8 -5 13 -172 125 -185 125 -7 0 -13 4 -13 8 0 10 -273
159 -300 165 -3 0 -39 16 -80 36 -41 19 -91 40 -110 47 -19 7 -44 17 -55 21
-17 7 -88 31 -105 35 -3 1 -12 4 -20 7 -27 10 -155 47 -175 51 -11 2 -27 7
-35 10 -8 4 -26 9 -40 11 -14 3 -36 8 -50 11 -25 7 -32 8 -104 20 -21 4 -48 9
-60 11 -40 8 -111 17 -143 18 -18 1 -33 3 -33 6 0 3 -8 6 -17 6 -10 1 -58 4
-108 8 -171 14 -345 15 -345 3 0 -8 -3 -9 -8 -1 -6 9 -148 15 -156 6z m259
-791 c-3 -6 23 -10 62 -10 86 0 240 -18 328 -38 11 -3 34 -6 51 -7 17 -2 35
-5 40 -8 11 -7 64 -21 84 -23 29 -3 211 -64 326 -110 109 -44 164 -70 240
-116 17 -10 34 -16 37 -12 4 3 7 2 7 -4 0 -5 22 -22 50 -37 27 -15 52 -31 55
-37 4 -5 11 -7 16 -4 5 4 9 2 9 -3 0 -7 77 -65 158 -117 9 -5 27 -20 41 -32
13 -12 29 -19 34 -16 6 3 7 2 4 -4 -6 -10 52 -60 65 -55 5 1 7 -2 5 -6 -3 -10
124 -128 135 -124 4 1 7 -4 6 -10 -2 -7 4 -11 12 -10 8 2 12 0 7 -4 -10 -10
23 -45 36 -37 5 3 7 2 4 -3 -3 -6 21 -39 54 -74 32 -36 59 -68 59 -72 0 -5 8
-16 18 -26 10 -10 28 -34 41 -55 12 -20 27 -35 32 -31 5 3 8 2 7 -3 -4 -14 48
-93 57 -86 4 5 5 3 2 -3 -3 -6 4 -26 16 -45 13 -19 31 -51 42 -71 10 -20 22
-35 25 -33 4 2 7 -1 7 -8 0 -20 65 -147 75 -147 5 0 7 -4 4 -9 -3 -5 7 -37 23
-72 34 -75 111 -300 111 -323 0 -9 5 -16 11 -16 5 0 7 -4 4 -10 -3 -5 -1 -29
6 -52 6 -24 11 -45 12 -48 1 -4 6 -32 21 -105 21 -96 33 -339 28 -545 -5 -209
-6 -230 -12 -230 -6 0 -12 -49 -14 -102 -1 -14 -3 -24 -5 -22 -3 3 -15 -39
-27 -93 -12 -54 -34 -132 -49 -173 -14 -41 -28 -83 -30 -92 -2 -9 -13 -38 -24
-64 -12 -25 -18 -51 -14 -57 3 -6 1 -7 -5 -3 -7 4 -12 1 -12 -6 0 -7 -28 -69
-62 -138 -34 -69 -62 -127 -63 -130 0 -3 -13 -24 -28 -47 -15 -24 -27 -45 -27
-48 0 -3 -9 -18 -19 -33 -10 -15 -47 -70 -81 -122 -35 -52 -83 -119 -107 -150
-24 -30 -59 -73 -76 -95 -18 -22 -57 -65 -87 -95 -30 -30 -54 -58 -53 -62 2
-5 -1 -8 -5 -8 -9 0 -27 -14 -93 -73 -20 -18 -53 -45 -74 -62 -49 -38 -115
-90 -136 -107 -9 -7 -22 -14 -30 -16 -7 -2 -16 -7 -19 -11 -3 -4 -24 -18 -47
-31 -23 -13 -39 -28 -36 -33 3 -6 1 -7 -4 -4 -6 4 -37 -9 -69 -28 -31 -19 -66
-37 -76 -41 -10 -3 -18 -10 -18 -15 0 -6 -4 -8 -9 -5 -5 3 -29 -5 -53 -18 -25
-13 -73 -34 -106 -46 -34 -13 -62 -27 -62 -32 0 -5 -4 -7 -9 -4 -5 3 -24 0
-42 -8 -65 -26 -74 -29 -89 -32 -18 -3 -31 -7 -90 -23 -25 -7 -53 -15 -63 -17
-10 -2 -27 -6 -37 -9 -10 -3 -28 -8 -39 -10 -12 -3 -29 -7 -38 -9 -10 -2 -38
-7 -63 -10 -25 -4 -54 -8 -65 -10 -11 -3 -33 -5 -48 -5 -16 -1 -26 -4 -24 -9
3 -4 -11 -6 -31 -6 -21 1 -43 -3 -49 -8 -9 -7 -13 -7 -13 1 0 7 -5 9 -12 4 -7
-4 -52 -8 -100 -9 -47 -1 -91 -5 -97 -8 -6 -4 -11 -4 -11 1 0 4 -30 8 -68 7
-37 0 -72 3 -77 7 -6 5 -17 4 -25 -1 -8 -5 -21 -5 -30 0 -8 4 -35 11 -60 14
-75 9 -152 22 -157 26 -2 2 -11 3 -20 5 -10 1 -26 5 -35 9 -10 5 -25 5 -34 2
-8 -3 -12 -2 -9 4 3 6 -3 11 -14 11 -12 1 -24 2 -28 4 -5 1 -20 5 -34 9 -14 4
-32 9 -40 10 -8 2 -21 6 -29 9 -8 4 -24 8 -35 10 -11 2 -29 7 -40 11 -11 5
-32 12 -47 18 -15 6 -30 10 -33 9 -3 -1 -19 6 -35 14 -16 8 -33 16 -37 16 -22
0 -53 12 -53 20 0 5 -9 9 -20 9 -11 0 -20 5 -20 10 0 6 -12 10 -26 10 -14 0
-23 4 -20 9 5 7 -27 22 -56 25 -3 1 -10 5 -15 9 -4 5 -21 15 -38 23 -16 7 -37
18 -45 23 -8 5 -32 17 -52 27 -21 10 -38 22 -38 26 0 4 -7 5 -15 2 -8 -4 -15
-1 -15 5 0 6 -16 19 -35 28 -19 9 -35 21 -35 25 0 5 -4 6 -10 3 -6 -3 -10 -2
-10 2 0 5 -20 22 -46 38 -25 16 -53 36 -63 44 -10 9 -33 27 -51 41 -18 14 -48
40 -67 58 -18 17 -36 32 -39 32 -3 0 -23 18 -44 40 -21 22 -44 40 -51 40 -7 0
-10 3 -7 6 4 3 -20 32 -53 64 -32 32 -59 62 -59 66 0 4 -15 21 -33 38 -18 17
-46 49 -62 71 -17 22 -32 42 -35 45 -4 3 -22 28 -41 55 -18 28 -36 52 -39 55
-5 5 -47 69 -72 110 -8 14 -15 29 -16 34 0 5 -5 12 -10 15 -5 3 -24 35 -43 71
-18 36 -37 67 -41 68 -4 2 -8 11 -8 21 0 9 -4 21 -8 26 -5 6 -24 48 -42 95
-18 47 -37 90 -41 96 -5 6 -10 19 -12 30 -1 10 -6 25 -10 31 -5 7 -10 21 -12
30 -2 10 -10 37 -18 60 -9 22 -13 44 -10 47 4 3 2 6 -4 6 -5 0 -10 6 -11 13 0
6 -3 22 -6 35 -19 71 -28 114 -29 130 0 6 -4 12 -9 12 -5 0 -7 3 -4 8 2 4 0
30 -6 57 -10 50 -14 93 -19 170 -1 22 -7 46 -12 53 -6 8 -5 12 3 12 9 0 9 4 3
13 -14 17 -14 397 -1 397 7 0 7 5 1 13 -9 12 -9 23 1 82 3 17 7 48 10 70 3 22
10 63 16 90 7 28 14 59 16 70 2 11 6 29 9 40 9 45 44 154 54 174 7 12 9 26 6
31 -3 5 -1 11 5 15 6 4 8 11 5 16 -4 5 -2 9 2 9 5 0 17 24 27 53 10 28 36 89
57 135 22 45 39 85 39 87 0 3 18 35 40 71 22 36 40 68 40 70 0 3 5 10 10 17 6
7 30 44 53 82 69 115 210 304 292 391 17 18 49 53 73 78 23 25 46 46 51 46 5
0 13 9 16 21 4 11 9 18 12 16 2 -3 17 7 32 21 15 15 42 38 60 52 18 14 46 37
62 53 17 15 34 27 39 27 5 0 16 10 24 22 9 12 16 18 16 13 0 -6 7 -1 15 9 8
11 15 16 15 12 0 -4 21 7 48 26 26 19 55 37 65 41 9 3 17 11 17 17 0 6 5 8 10
5 6 -3 13 1 16 9 3 9 10 14 14 11 5 -3 16 3 26 12 10 10 19 17 21 16 9 -7 32
11 26 20 -3 5 -2 7 4 4 10 -6 106 36 99 44 -2 2 5 5 17 6 12 0 49 14 82 29 33
15 65 29 70 30 6 1 63 21 127 43 106 37 147 49 228 65 14 3 36 8 50 11 56 12
187 33 255 41 33 3 64 9 69 11 4 3 61 6 126 7 65 0 122 4 126 9 10 10 16 9 9
-2z"/>
<path d="M3417 5505 c-1 -1 -42 -5 -92 -9 -106 -7 -161 -14 -195 -22 -14 -4
-32 -8 -40 -9 -44 -7 -205 -48 -210 -54 -3 -4 -16 -8 -30 -9 -14 -2 -27 -8
-28 -13 -2 -5 -7 -7 -12 -4 -9 5 -47 -9 -162 -59 -20 -9 -41 -16 -47 -16 -6 0
-11 -5 -11 -11 0 -5 -5 -7 -11 -3 -6 3 -14 3 -18 -2 -3 -5 -17 -15 -31 -22
-57 -28 -141 -78 -165 -99 -14 -13 -29 -23 -33 -23 -14 0 -203 -171 -276 -249
-22 -25 -49 -53 -58 -63 -10 -10 -18 -22 -18 -27 0 -5 -7 -12 -16 -15 -8 -3
-13 -10 -10 -15 3 -5 -1 -11 -8 -14 -19 -8 -156 -212 -156 -232 0 -9 -3 -14
-8 -11 -4 2 -16 -16 -26 -40 -10 -24 -22 -44 -27 -44 -5 0 -9 -5 -9 -11 0 -5
-12 -36 -26 -67 -14 -31 -34 -75 -44 -97 -18 -39 -82 -229 -81 -240 0 -2 -6
-23 -14 -45 -8 -22 -14 -42 -15 -45 0 -3 0 -6 -1 -7 -11 -37 -31 -175 -44
-308 -2 -14 -4 -29 -5 -35 -1 -5 -2 -12 -1 -15 1 -3 3 -69 4 -147 1 -79 5
-143 8 -143 3 0 7 -17 8 -37 1 -36 8 -78 11 -78 1 0 4 -14 6 -32 3 -17 16 -71
30 -120 14 -48 27 -95 29 -103 2 -8 4 -16 5 -17 2 -2 3 -6 5 -10 1 -5 4 -15 8
-23 3 -8 12 -35 21 -60 8 -25 29 -76 46 -115 17 -38 32 -78 33 -87 1 -9 4 -15
7 -13 3 2 17 -20 30 -48 14 -29 28 -56 32 -62 16 -21 74 -112 87 -138 8 -15
18 -27 23 -27 4 0 8 -5 8 -11 0 -10 58 -85 105 -135 86 -92 137 -144 142 -144
3 0 19 -13 34 -30 16 -16 29 -27 29 -24 0 4 9 -5 21 -20 11 -14 27 -26 35 -26
8 0 14 -4 14 -10 0 -5 7 -10 16 -10 8 0 13 -4 10 -8 -3 -5 8 -16 25 -26 16 -9
29 -22 29 -27 0 -6 4 -8 9 -4 5 3 15 -1 23 -8 7 -7 29 -22 48 -33 19 -10 41
-25 48 -32 8 -7 18 -10 23 -7 5 4 9 -2 9 -11 0 -10 3 -14 6 -11 7 7 87 -32 92
-45 2 -5 10 -8 17 -8 7 0 33 -10 57 -21 23 -12 52 -25 63 -29 11 -5 36 -14 55
-21 19 -8 40 -14 45 -15 6 -1 24 -8 40 -15 17 -6 39 -14 50 -16 37 -8 50 -11
50 -13 0 -2 22 -7 60 -15 17 -3 39 -9 50 -12 11 -4 29 -8 40 -9 11 -1 31 -5
45 -9 14 -3 40 -6 58 -6 17 0 32 -3 32 -7 0 -7 89 -11 245 -11 77 0 180 5 180
9 0 1 11 3 25 5 67 6 123 17 215 41 55 14 109 27 120 29 11 3 21 9 23 15 2 6
8 7 13 4 6 -3 15 -1 22 4 7 6 17 11 22 11 40 5 85 24 79 33 -4 7 -3 8 4 4 7
-4 34 4 62 18 27 14 50 22 50 18 0 -4 4 -2 8 3 14 19 72 46 85 39 6 -4 9 -4 5
1 -7 7 70 62 112 81 8 4 25 16 38 27 12 11 22 17 22 14 0 -4 8 1 18 10 10 10
33 29 52 43 48 36 118 96 169 147 24 23 48 43 53 43 4 0 8 5 8 11 0 6 16 26
36 45 20 19 34 34 31 34 -3 0 5 12 18 26 14 15 22 31 18 37 -3 5 -1 7 4 4 10
-6 24 14 80 108 36 60 72 139 67 146 -3 5 -1 9 4 9 12 0 33 56 25 64 -4 3 -2
6 4 6 5 0 10 6 11 13 1 19 7 41 13 52 3 6 5 21 5 35 -1 14 3 28 7 31 5 3 10
26 11 51 2 25 6 50 10 57 13 21 10 355 -3 359 -9 3 -9 7 0 18 9 11 9 14 0 14
-7 0 -10 4 -6 9 3 5 1 12 -5 16 -6 4 -8 10 -5 15 6 10 -22 80 -43 103 -8 9
-12 17 -8 17 4 0 -6 17 -21 37 -47 63 -66 83 -79 83 -6 0 -15 7 -18 16 -3 8
-10 13 -15 10 -5 -3 -12 1 -15 10 -4 10 -12 14 -23 10 -10 -4 -14 -4 -10 0 10
10 -71 46 -109 49 -17 1 -35 4 -40 6 -5 2 -51 4 -101 4 -51 0 -93 4 -93 8 0 5
-5 5 -11 1 -16 -10 -100 -11 -105 -2 -3 5 -13 4 -22 0 -9 -5 -28 -7 -42 -5
-44 5 -132 5 -137 0 -2 -3 -18 -1 -34 3 -16 5 -29 6 -29 2 0 -4 -26 -6 -57 -5
-37 2 -60 -1 -65 -9 -6 -10 -8 -10 -8 0 0 7 -4 10 -10 7 -5 -3 -20 -8 -32 -11
-33 -7 -52 -12 -58 -14 -3 -1 -8 -2 -11 -2 -4 1 -18 -9 -32 -22 -14 -13 -27
-23 -29 -21 -2 2 -9 -3 -16 -11 -7 -8 -11 -14 -8 -14 3 0 -6 -11 -19 -24 -13
-13 -27 -37 -31 -53 -4 -15 -10 -32 -14 -38 -5 -5 -12 -28 -16 -50 -11 -54
-11 -58 -5 -70 9 -17 8 -45 -2 -45 -5 0 -5 -6 2 -13 6 -8 12 -24 14 -37 2 -12
10 -28 18 -34 8 -6 15 -18 17 -26 2 -8 8 -16 13 -18 5 -2 9 -9 9 -15 0 -16 58
-64 105 -86 51 -25 192 -45 201 -29 3 4 14 3 25 -2 10 -6 19 -7 19 -3 0 4 14
8 30 8 25 0 30 -4 30 -23 0 -13 -4 -20 -10 -17 -5 3 -10 0 -10 -8 0 -8 -7 -17
-15 -21 -8 -3 -15 -12 -15 -21 0 -8 -4 -15 -10 -15 -5 0 -7 -8 -3 -17 3 -10 2
-15 -2 -11 -5 5 -30 -22 -57 -58 -26 -37 -48 -64 -48 -61 0 3 -11 -5 -25 -19
-14 -14 -23 -30 -20 -35 4 -5 0 -9 -7 -9 -7 0 -40 -23 -73 -50 -54 -45 -177
-115 -215 -122 -8 -2 -20 -8 -28 -15 -7 -7 -19 -10 -27 -7 -8 4 -15 2 -15 -3
0 -5 -8 -9 -17 -9 -10 -1 -31 -4 -48 -8 -135 -29 -322 -24 -377 10 -7 4 -8 3
-4 -4 4 -7 -8 -5 -29 4 -20 8 -40 12 -45 9 -6 -4 -10 -1 -10 4 0 6 -9 11 -20
11 -11 0 -20 4 -20 8 0 4 -9 8 -20 9 -11 1 -33 11 -49 22 -16 12 -34 21 -39
21 -6 0 -12 4 -14 9 -1 5 -10 11 -18 13 -8 2 -24 12 -36 23 -12 11 -37 31 -55
45 -42 31 -149 142 -149 154 0 5 -8 16 -18 25 -20 18 -49 62 -50 75 0 5 -5 12
-10 15 -13 8 -97 177 -112 226 -7 22 -15 47 -18 55 -7 19 -11 39 -17 70 -2 14
-6 36 -9 50 -3 14 -8 43 -11 65 -3 22 -7 50 -9 63 -2 12 2 22 8 22 8 0 8 2 0
8 -11 7 -15 262 -4 262 3 0 6 26 8 58 2 51 8 97 12 97 1 0 4 14 6 30 2 17 8
39 13 50 19 47 33 91 34 108 1 9 4 17 7 17 8 0 36 71 33 82 -2 4 5 8 14 8 9 0
13 3 10 7 -9 8 65 132 103 174 8 9 24 29 35 44 29 41 107 115 121 115 5 0 23
14 54 42 10 9 21 14 24 10 3 -3 6 -1 6 4 0 6 18 18 40 28 22 10 40 22 40 27 0
6 5 7 10 4 6 -4 16 -2 23 3 7 5 30 15 52 23 51 16 53 17 95 24 19 3 42 8 50
11 43 16 262 23 320 11 14 -3 47 -10 74 -17 27 -6 56 -8 63 -6 8 3 11 1 8 -4
-3 -6 3 -10 15 -10 11 0 28 -4 38 -10 50 -28 106 -49 115 -43 6 3 7 1 3 -6 -4
-6 0 -14 11 -18 33 -11 127 -85 187 -147 33 -34 64 -60 68 -58 5 1 7 -1 4 -6
-7 -12 78 -94 89 -85 4 5 5 3 2 -3 -8 -14 50 -57 66 -48 6 4 8 3 4 -1 -13 -14
75 -43 126 -42 26 1 47 -1 47 -5 0 -11 253 -8 267 4 9 7 13 7 13 0 0 -6 23 -4
60 5 33 9 58 18 56 22 -3 4 4 7 14 8 11 1 29 11 42 22 12 12 26 21 30 21 5 0
6 5 3 10 -3 6 0 10 7 10 20 0 102 129 115 180 2 8 6 44 9 80 10 100 -18 169
-121 295 -45 55 -145 158 -145 149 0 -4 -9 4 -20 17 -10 13 -19 21 -20 17 0
-3 -15 8 -33 25 -55 53 -107 92 -120 89 -7 -2 -9 0 -5 3 6 6 -54 55 -67 55 -2
0 -30 17 -62 38 -78 52 -250 135 -263 127 -5 -3 -10 -2 -10 3 0 13 -158 64
-172 56 -6 -4 -8 -3 -5 3 4 6 -7 14 -26 18 -17 4 -41 10 -52 12 -11 3 -29 6
-40 7 -11 0 -22 4 -25 7 -5 7 -17 9 -180 34 -83 13 -412 28 -423 20z"/>
</g>
</svg>
